<?xml version="1.0" encoding="UTF-8" standalone="no"?>
<svg
   xmlns:dc="http://purl.org/dc/elements/1.1/"
   xmlns:cc="http://creativecommons.org/ns#"
   xmlns:rdf="http://www.w3.org/1999/02/22-rdf-syntax-ns#"
   xmlns:svg="http://www.w3.org/2000/svg"
   xmlns="http://www.w3.org/2000/svg"
   viewBox="0 0 585.44 140.75999"
   height="140.75999"
   width="585.44"
   xml:space="preserve"
   id="svg2"
   version="1.1"><metadata
     id="metadata8"><rdf:RDF><cc:Work
         rdf:about=""><dc:format>image/svg+xml</dc:format><dc:type
           rdf:resource="http://purl.org/dc/dcmitype/StillImage" /></cc:Work></rdf:RDF></metadata><defs
     id="defs6" /><g
     transform="matrix(1.3333333,0,0,-1.3333333,0,140.76)"
     id="g10"><g
       transform="scale(0.1)"
       id="g12"><path
         id="path14"
         style="fill:#656263;fill-opacity:1;fill-rule:nonzero;stroke:none"
         d="m 3451.95,775.719 v 279.991 l -281.62,-1.82 -177.86,-274.714 -982.87,-3.457 h -192.42 c 0,72.336 -58.64,130.988 -130.98,130.988 -72.34,0 -130.98,-58.652 -130.98,-130.988 H 1437.19 217.738 C 97.4883,775.719 0,678.238 0,557.984 V 378.945 C 0,258.688 97.4883,161.219 217.738,161.219 h 3149.442 63.29 V 0 h 259.11 v 161.219 h 100.3 383.15 c 120.26,0 217.74,97.469 217.74,217.726 v 179.039 c 0,120.254 -97.48,217.735 -217.74,217.735 h -721.08" /><path
         id="path16"
         style="fill:#ffffff;fill-opacity:1;fill-rule:nonzero;stroke:none"
         d="m 242.367,376.75 c 24.11,-29.547 50.531,-48.969 93.297,-48.969 38.082,0 80.063,16.309 80.063,55.961 0,38.871 -38.872,48.969 -77.739,57.52 -69.179,15.554 -128.261,30.328 -128.261,105.722 0,70.735 68.402,107.282 136.035,107.282 51.301,0 98.726,-19.446 123.601,-66.086 L 418.84,554.758 c -15.555,25.652 -41.203,43.523 -76.977,43.523 -33.418,0 -71.508,-16.32 -71.508,-50.515 0,-30.332 43.532,-43.543 91.731,-52.868 64.523,-12.433 118.937,-35.753 118.937,-108.832 0,-82.39 -73.078,-114.265 -145.359,-114.265 -61.422,0 -105.723,16.328 -141.484,67.629 l 48.187,37.32" /><path
         id="path18"
         style="fill:#ffffff;fill-opacity:1;fill-rule:nonzero;stroke:none"
         d="m 838.598,495.676 c -2.332,61.418 -42.746,102.605 -109.606,102.605 -66.851,0 -111.156,-41.187 -118.937,-102.605 z M 890.68,347.203 c -42.754,-55.195 -94.055,-75.402 -161.688,-75.402 -114.265,0 -184.23,85.5 -184.23,191.222 0,112.715 79.285,191.243 186.562,191.243 102.606,0 172.571,-69.965 172.571,-190.461 v -19.434 h -293.84 c 4.672,-62.969 52.859,-116.59 118.937,-116.59 52.086,0 87.059,18.649 115.821,55.176 l 45.867,-35.754" /><path
         id="path20"
         style="fill:#ffffff;fill-opacity:1;fill-rule:nonzero;stroke:none"
         d="m 997.961,558.641 c 0,33.422 -3.117,62.187 -3.117,86.289 h 57.526 c 0,-19.434 1.55,-39.649 1.55,-59.86 h 1.57 c 16.31,35.758 61.4,69.196 121.25,69.196 7.79,0 16.34,-0.786 24.89,-3.899 l -3.9,-61.414 c -10.1,3.11 -21.76,4.676 -32.64,4.676 -73.85,0 -106.5,-52.094 -106.5,-135.262 V 281.129 h -60.629 v 277.512" /><path
         id="path22"
         style="fill:#ffffff;fill-opacity:1;fill-rule:nonzero;stroke:none"
         d="m 1437.14,281.129 h -66.85 L 1221.82,644.93 h 70.74 l 113.49,-285.285 h 1.55 l 108.06,285.285 h 65.3 L 1437.14,281.129" /><path
         id="path24"
         style="fill:#ffffff;fill-opacity:1;fill-rule:nonzero;stroke:none"
         d="m 1651.69,644.93 h 60.64 V 281.129 h -60.64 z M 1682,831.492 c 24.88,0 44.32,-20.211 44.32,-44.312 0,-25.657 -18.66,-44.301 -44.32,-44.301 -25.65,0 -44.3,18.644 -44.3,44.301 0,24.101 19.43,44.312 44.3,44.312" /><path
         id="path26"
         style="fill:#ffffff;fill-opacity:1;fill-rule:nonzero;stroke:none"
         d="m 2091.67,553.98 c -25.66,31.09 -55.2,44.301 -91.73,44.301 -81.63,0 -122.83,-60.633 -122.83,-135.258 0,-74.625 48.97,-135.242 122.83,-135.242 39.64,0 69.96,13.985 92.5,45.078 l 45.08,-42.754 c -34.97,-40.425 -84.73,-58.304 -137.58,-58.304 -112.72,0 -188.12,79.297 -188.12,191.222 0,110.391 76.18,191.243 188.12,191.243 53.63,0 103.38,-17.883 139.93,-57.536 l -48.2,-42.75" /><path
         id="path28"
         style="fill:#ffffff;fill-opacity:1;fill-rule:nonzero;stroke:none"
         d="m 2480.33,495.676 c -2.33,61.418 -42.74,102.605 -109.62,102.605 -66.83,0 -111.15,-41.187 -118.92,-102.605 z m 52.08,-148.473 c -42.74,-55.195 -94.07,-75.402 -161.7,-75.402 -114.25,0 -184.22,85.5 -184.22,191.222 0,112.715 79.29,191.243 186.57,191.243 102.57,0 172.56,-69.965 172.56,-190.461 v -19.434 h -293.83 c 4.67,-62.969 52.84,-116.59 118.92,-116.59 52.1,0 87.05,18.649 115.82,55.176 l 45.88,-35.754" /><path
         id="path30"
         style="fill:#ffffff;fill-opacity:1;fill-rule:nonzero;stroke:none"
         d="m 2647.44,376.75 c 24.11,-29.547 50.57,-48.969 93.31,-48.969 38.07,0 80.06,16.309 80.06,55.961 0,38.871 -38.87,48.969 -77.73,57.52 -69.18,15.554 -128.29,30.328 -128.29,105.722 0,70.735 68.43,107.282 136.06,107.282 51.29,0 98.72,-19.446 123.61,-66.086 l -50.53,-33.422 c -15.57,25.652 -41.22,43.523 -76.98,43.523 -33.41,0 -71.52,-16.32 -71.52,-50.515 0,-30.332 43.55,-43.543 91.73,-52.868 64.52,-12.433 118.95,-35.753 118.95,-108.832 0,-82.39 -73.07,-114.265 -145.36,-114.265 -61.42,0 -105.72,16.328 -141.48,67.629 l 48.17,37.32" /><path
         id="path32"
         style="fill:#f68712;fill-opacity:1;fill-rule:nonzero;stroke:none"
         d="m 3229.68,767.574 h -1.92 l -149.15,-231.82 h 151.07 z m 0,-351.539 h -293.59 v 119.719 l 274.55,418.027 h 155.84 V 535.754 h 428.37 l -75.59,-119.719 h -352.78 v -179.66 h -136.8 v 179.66" /><path
         id="path34"
         style="fill:#ffffff;fill-opacity:1;fill-rule:nonzero;stroke:none"
         d="m 3719.8,327.781 c 78.55,0 129.07,59.063 129.07,135.242 0,76.188 -50.52,135.258 -129.07,135.258 -78.48,0 -129.02,-59.07 -129.02,-135.258 0,-76.179 50.54,-135.242 129.02,-135.242 z M 3530.16,644.93 h 60.62 v -52.867 h 1.57 c 33.42,38.871 77.72,62.203 130.6,62.203 114.27,0 191.2,-80.852 191.2,-191.243 0,-108.824 -80.06,-191.222 -181.89,-191.222 -65.3,0 -117.38,32.648 -139.91,73.84 h -1.57 V 103.895 h -60.62 V 644.93" /><path
         id="path36"
         style="fill:#ffffff;fill-opacity:1;fill-rule:nonzero;stroke:none"
         d="m 4215.69,553.98 c -25.64,31.09 -55.18,44.301 -91.72,44.301 -81.63,0 -122.85,-60.633 -122.85,-135.258 0,-74.625 49.02,-135.242 122.85,-135.242 39.64,0 69.98,13.985 92.52,45.078 l 45.09,-42.754 c -34.99,-40.425 -84.73,-58.304 -137.61,-58.304 -112.72,0 -188.1,79.297 -188.1,191.222 0,110.391 76.14,191.243 188.1,191.243 53.64,0 103.37,-17.883 139.92,-57.536 l -48.2,-42.75" /></g></g></svg>