<?xml version="1.0" encoding="UTF-8" standalone="no"?>
<svg
   xmlns:dc="http://purl.org/dc/elements/1.1/"
   xmlns:cc="http://creativecommons.org/ns#"
   xmlns:rdf="http://www.w3.org/1999/02/22-rdf-syntax-ns#"
   xmlns:svg="http://www.w3.org/2000/svg"
   xmlns="http://www.w3.org/2000/svg"
   xmlns:sodipodi="http://sodipodi.sourceforge.net/DTD/sodipodi-0.dtd"
   xmlns:inkscape="http://www.inkscape.org/namespaces/inkscape"
   version="1.2"
   width="1055.842"
   height="189.32"
   viewBox="0 0 1055.8417 189.32018"
   preserveAspectRatio="none"
   id="svg2985"
   inkscape:version="0.48.5 r10040"
   sodipodi:docname="freifunk-ddorf.svg">
  <metadata
     id="metadata3059">
    <rdf:RDF>
      <cc:Work
         rdf:about="">
        <dc:format>image/svg+xml</dc:format>
        <dc:type
           rdf:resource="http://purl.org/dc/dcmitype/StillImage" />
        <dc:title></dc:title>
      </cc:Work>
    </rdf:RDF>
  </metadata>
  <defs
     id="defs3057" />
  <sodipodi:namedview
     pagecolor="#ffffff"
     bordercolor="#666666"
     borderopacity="1"
     objecttolerance="10"
     gridtolerance="10"
     guidetolerance="10"
     inkscape:pageopacity="0"
     inkscape:pageshadow="2"
     inkscape:window-width="1600"
     inkscape:window-height="878"
     id="namedview3055"
     showgrid="false"
     inkscape:zoom="0.69707397"
     inkscape:cx="747.58624"
     inkscape:cy="-28.96509"
     inkscape:window-x="0"
     inkscape:window-y="22"
     inkscape:window-maximized="0"
     inkscape:current-layer="svg2985" />
  <g
     transform="matrix(1.424 0 0 1.424 -3.804 4.014)"
     id="g2987">
    <circle
       cx="36"
       cy="54"
       r="22"
       transform="matrix(1.478 0 0 1.507 -3.122 -2.435)"
       stroke="#de2c68"
       stroke-width="1.145"
       fill="none"
       id="circle2989" />
    <circle
       cx="74"
       cy="44"
       r="22"
       transform="matrix(1.595 0 0 1.622 -10.072 -9.178)"
       stroke="#de2c68"
       stroke-width="1.062"
       fill="none"
       id="circle2991" />
    <circle
       cx="74"
       cy="44"
       r="29"
       transform="matrix(1.583 0 0 1.599 -9.34 -8.136)"
       stroke="#de2c68"
       stroke-width="5.812"
       fill="none"
       id="circle2993" />
    <path
       d="M42.23 62.951h-7.247l5.797 5.495h-11.595v5.495h11.595l-5.797 5.495h7.247l8.696-8.243z"
       fill="#fc3"
       id="path2995" />
    <path
       d="M117.514 85.333l-9.096-9.414h19.707v-9.414h-19.707l9.096-9.414h-12.128l-13.644 14.12 13.644 14.12z"
       fill="#fc3"
       id="path2997" />
  </g>
  <g
     style="font-size:83.66400145999999438px;line-height:125%;letter-spacing:0;word-spacing:0;fill:#4d4d4d;font-family:Sans"
     font-size="83.664"
     letter-spacing="0"
     word-spacing="0"
     id="g2999">
    <g
       style="font-size:83.70866393999999389px;font-style:normal;font-weight:normal;fill:#4d4d4d;fill-opacity:1;stroke:none;font-family:Sans"
       id="text3067">
      <path
         d="m 289.13896,60.421879 -24.93276,0 0,24.72839 -11.93502,0 0,-59.511629 41.03686,0 0,9.196509 -29.10184,0 0,16.390222 24.93276,0 0,9.196508"
         style="font-weight:bold;fill:#4d4d4d;-inkscape-font-specification:Sans Bold"
         id="path3074"
         inkscape:connector-curvature="0" />
      <path
         d="m 321.79678,51.184497 -4.37345,-0.12262 c -1.7712,3.4e-5 -3.22901,0.367894 -4.37345,1.103581 -1.14447,0.735753 -2.01644,1.771211 -2.61589,3.106376 l 0,29.878435 -11.89416,0 0,-44.224988 11.07669,0 0.53135,6.539739 c 1.03544,-2.316117 2.37064,-4.114544 4.00559,-5.395285 1.66216,-1.307903 3.56959,-1.961876 5.72227,-1.961921 0.59945,4.5e-5 1.14443,0.05454 1.63494,0.163493 0.5177,0.08179 1.03543,0.190787 1.55319,0.326987 l -1.26708,10.586203"
         style="font-weight:bold;fill:#4d4d4d;-inkscape-font-specification:Sans Bold"
         id="path3076"
         inkscape:connector-curvature="0" />
      <path
         d="m 347.38351,86.008609 c -6.37626,-1e-6 -11.4718,-2.043667 -15.28664,-6.131005 -3.81485,-4.087328 -5.72228,-9.278241 -5.72227,-15.572755 l 0,-1.634935 c -10e-6,-6.566959 1.79842,-11.975863 5.39528,-16.226728 3.6241,-4.250787 8.4744,-6.362576 14.55092,-6.335372 5.96749,4.5e-5 10.5998,1.798471 13.89695,5.395285 3.29708,3.596892 4.94564,8.460819 4.94568,14.591793 l 0,6.498866 -26.4042,0 -0.0817,0.24524 c 0.21798,2.91565 1.18531,5.313552 2.90201,7.193714 1.74391,1.880184 4.10094,2.820271 7.0711,2.820262 2.64311,9e-6 4.83665,-0.258856 6.58061,-0.776594 1.74389,-0.544968 3.65132,-1.389684 5.72227,-2.534149 l 3.229,7.357207 c -1.79847,1.471444 -4.1555,2.697644 -7.0711,3.678603 -2.91566,0.953712 -6.15828,1.430567 -9.72786,1.430568 M 346.3208,49.304322 c -2.20718,3.6e-5 -3.95111,0.844751 -5.23179,2.534149 -1.28071,1.689464 -2.07093,3.910249 -2.37065,6.66236 l 0.12262,0.204366 14.63266,0 0,-1.062707 c -3e-5,-2.534119 -0.5995,-4.550537 -1.79843,-6.049259 -1.17173,-1.525904 -2.95653,-2.288873 -5.35441,-2.288909"
         style="font-weight:bold;fill:#4d4d4d;-inkscape-font-specification:Sans Bold"
         id="path3078"
         inkscape:connector-curvature="0" />
      <path
         d="m 384.66003,85.150269 -11.93502,0 0,-44.224988 11.93502,0 0,44.224988 m 0,-54.811191 -11.93502,0 0,-8.951268 11.93502,0 0,8.951268"
         style="font-weight:bold;fill:#4d4d4d;-inkscape-font-specification:Sans Bold"
         id="path3080"
         inkscape:connector-curvature="0" />
      <path
         d="m 397.61689,85.150269 0,-35.845947 -6.58062,0 0,-8.379041 6.58062,0 0,-4.904804 c -1e-5,-4.959249 1.43056,-8.774093 4.2917,-11.444544 2.86112,-2.69758 6.88033,-4.046399 12.05765,-4.046464 1.00818,6.5e-5 2.03001,0.08181 3.0655,0.24524 1.06268,0.136309 2.22076,0.340676 3.47424,0.613101 l -1.02184,8.869521 c -0.654,-0.10894 -1.29435,-0.204312 -1.92105,-0.286113 -0.5995,-0.08169 -1.30797,-0.122565 -2.12541,-0.12262 -1.9347,5.5e-5 -3.40614,0.531408 -4.41433,1.594061 -0.98098,1.06276 -1.47146,2.588698 -1.47144,4.577818 l 0,4.904804 8.78778,0 0,8.379041 -8.78778,0 0,35.845947 -11.93502,0"
         style="font-weight:bold;fill:#4d4d4d;-inkscape-font-specification:Sans Bold"
         id="path3082"
         inkscape:connector-curvature="0" />
      <path
         d="m 451.44712,78.774023 c -1.36248,2.316161 -3.09278,4.100964 -5.19092,5.354411 -2.09819,1.25345 -4.50971,1.880174 -7.23458,1.880175 -4.65958,-1e-6 -8.31093,-1.485065 -10.95407,-4.455197 -2.6159,-2.997374 -3.92385,-7.643309 -3.92384,-13.93782 l 0,-26.690311 11.89415,0 0,26.772058 c -2e-5,3.215386 0.54496,5.531542 1.63493,6.948473 1.08994,1.389704 2.69763,2.084551 4.82306,2.084542 1.9074,9e-6 3.54234,-0.299729 4.90481,-0.899214 1.36241,-0.626715 2.47962,-1.539553 3.35161,-2.738516 l 0,-32.167343 11.93503,0 0,44.224988 -10.17747,0 -1.06271,-6.376246"
         style="font-weight:bold;fill:#4d4d4d;-inkscape-font-specification:Sans Bold"
         id="path3084"
         inkscape:connector-curvature="0" />
      <path
         d="m 482.59263,40.925281 0.53135,6.335373 c 1.47143,-2.26162 3.28348,-4.019173 5.43616,-5.272665 2.15264,-1.253406 4.56417,-1.88013 7.23459,-1.880175 4.46879,4.5e-5 7.95665,1.403362 10.46358,4.209957 2.50686,2.806676 3.76031,7.207371 3.76035,13.202099 l 0,27.630399 -11.97589,0 0,-27.589526 c -4e-5,-2.970101 -0.59951,-5.068265 -1.79843,-6.294499 -1.19898,-1.253415 -3.01103,-1.880139 -5.43616,-1.880175 -1.58046,3.6e-5 -2.9974,0.327022 -4.25083,0.980961 -1.25347,0.626759 -2.30255,1.525972 -3.14725,2.697642 l 0,32.085597 -11.93503,0 0,-44.224988 11.11756,0"
         style="font-weight:bold;fill:#4d4d4d;-inkscape-font-specification:Sans Bold"
         id="path3086"
         inkscape:connector-curvature="0" />
      <path
         d="m 534.13394,66.634631 -3.26987,0 0,18.515638 -11.93503,0 0,-63.762459 11.93503,0 0,36.172933 2.94288,0 10.25922,-16.635462 13.8152,0 -14.14219,20.027952 16.30848,24.197036 -13.69258,0 -12.22114,-18.515638"
         style="font-weight:bold;fill:#4d4d4d;-inkscape-font-specification:Sans Bold"
         id="path3088"
         inkscape:connector-curvature="0" />
      <path
         d="m 252.63504,168.77109 0,-59.51163 18.2704,0 c 7.79315,6e-5 14.04677,2.39796 18.76087,7.19372 4.71402,4.7686 7.07104,10.94048 7.0711,18.51563 l 0,8.1338 c -6e-5,7.60247 -2.35708,13.78797 -7.0711,18.55651 -4.7141,4.74132 -10.96772,7.11197 -18.76087,7.11197 l -18.2704,0 m 8.05205,-53.17625 0,46.88175 10.21835,0 c 5.50425,1e-5 9.83682,-1.81204 12.99773,-5.43616 3.18808,-3.62409 4.78214,-8.27002 4.78218,-13.93782 l 0,-8.21554 c -4e-5,-5.61324 -1.5941,-10.23193 -4.78218,-13.85608 -3.16091,-3.62405 -7.49348,-5.4361 -12.99773,-5.43615 l -10.21835,0"
         id="path3090"
         inkscape:connector-curvature="0"
         style="fill:#4d4d4d" />
      <path
         d="m 334.30004,162.23135 c -1.38973,2.37066 -3.17453,4.19634 -5.35442,5.47703 -2.17994,1.2807 -4.70046,1.92105 -7.56157,1.92105 -4.82307,0 -8.58342,-1.53956 -11.28105,-4.61869 -2.69765,-3.07912 -4.04647,-7.87492 -4.04646,-14.38743 l 0,-26.07721 8.05205,0 0,26.15896 c -10e-6,4.71408 0.69483,7.95669 2.08454,9.72786 1.38968,1.77119 3.55597,2.65678 6.49887,2.65677 2.86111,1e-5 5.21814,-0.57222 7.07109,-1.71668 1.88014,-1.17169 3.29709,-2.82025 4.25083,-4.94568 l 0,-31.88123 8.05206,0 0,44.22499 -7.23459,0 -0.53135,-6.53974 m 3.88297,-45.04245 -8.95127,0 0,-8.17468 8.95127,0 0,8.17468 m -19.21049,0 -8.95127,0 0,-8.17468 8.95127,0 0,8.17468"
         id="path3092"
         inkscape:connector-curvature="0"
         style="fill:#4d4d4d" />
      <path
         d="m 379.50598,157.04043 c -3e-5,-1.77116 -0.68125,-3.22898 -2.04367,-4.37345 -1.33522,-1.14443 -3.883,-2.13902 -7.64332,-2.98375 -5.36805,-1.17169 -9.41451,-2.75212 -12.13939,-4.74131 -2.69765,-2.0164 -4.04647,-4.75491 -4.04646,-8.21555 -1e-5,-3.59682 1.52593,-6.66232 4.57781,-9.19651 3.05187,-2.53411 7.03021,-3.80118 11.93503,-3.80122 5.15001,4e-5 9.23735,1.32161 12.26201,3.96471 3.05184,2.64319 4.50965,5.85856 4.37345,9.64612 l -0.0817,0.24524 -7.68419,0 c -3e-5,-1.93464 -0.8175,-3.66494 -2.4524,-5.19092 -1.60772,-1.55315 -3.74675,-2.32974 -6.41712,-2.32978 -2.86116,4e-5 -4.98657,0.62676 -6.37625,1.88017 -1.38971,1.25349 -2.08455,2.7658 -2.08454,4.53695 -1e-5,1.74396 0.61309,3.12003 1.8393,4.12821 1.22619,1.00824 3.71946,1.90745 7.47983,2.69764 5.586,1.19898 9.74145,2.83391 12.46638,4.90481 2.72485,2.04368 4.08729,4.79582 4.08733,8.25642 -4e-5,3.92385 -1.5941,7.09834 -4.78218,9.52349 -3.16091,2.42516 -7.30274,3.63773 -12.42551,3.63773 -5.64054,0 -10.08211,-1.43057 -13.32472,-4.2917 -3.24262,-2.86113 -4.78218,-6.19912 -4.61869,-10.01398 l 0.0817,-0.24524 7.68419,0 c 0.13624,2.86115 1.19894,4.95931 3.18813,6.2945 1.98915,1.30796 4.31893,1.96193 6.98934,1.96192 2.86111,10e-6 5.09552,-0.57222 6.70324,-1.71668 1.6349,-1.17169 2.45237,-2.69763 2.4524,-4.57782"
         id="path3094"
         inkscape:connector-curvature="0"
         style="fill:#4d4d4d" />
      <path
         d="m 423.32223,157.04043 c -3e-5,-1.77116 -0.68125,-3.22898 -2.04367,-4.37345 -1.33522,-1.14443 -3.88299,-2.13902 -7.64332,-2.98375 -5.36805,-1.17169 -9.41451,-2.75212 -12.13939,-4.74131 -2.69765,-2.0164 -4.04647,-4.75491 -4.04646,-8.21555 -10e-6,-3.59682 1.52593,-6.66232 4.57782,-9.19651 3.05186,-2.53411 7.0302,-3.80118 11.93502,-3.80122 5.15002,4e-5 9.23735,1.32161 12.26201,3.96471 3.05184,2.64319 4.50966,5.85856 4.37345,9.64612 l -0.0817,0.24524 -7.6842,0 c -3e-5,-1.93464 -0.8175,-3.66494 -2.4524,-5.19092 -1.60771,-1.55315 -3.74675,-2.32974 -6.41712,-2.32978 -2.86115,4e-5 -4.98657,0.62676 -6.37625,1.88017 -1.3897,1.25349 -2.08455,2.7658 -2.08454,4.53695 -1e-5,1.74396 0.61309,3.12003 1.8393,4.12821 1.22619,1.00824 3.71946,1.90745 7.47983,2.69764 5.586,1.19898 9.74146,2.83391 12.46638,4.90481 2.72485,2.04368 4.0873,4.79582 4.08734,8.25642 -4e-5,3.92385 -1.5941,7.09834 -4.78219,9.52349 -3.1609,2.42516 -7.30273,3.63773 -12.4255,3.63773 -5.64054,0 -10.08211,-1.43057 -13.32472,-4.2917 -3.24263,-2.86113 -4.78219,-6.19912 -4.61869,-10.01398 l 0.0817,-0.24524 7.6842,0 c 0.13623,2.86115 1.19894,4.95931 3.18812,6.2945 1.98915,1.30796 4.31893,1.96193 6.98935,1.96192 2.86111,10e-6 5.09552,-0.57222 6.70323,-1.71668 1.6349,-1.17169 2.45237,-2.69763 2.4524,-4.57782"
         id="path3096"
         inkscape:connector-curvature="0"
         style="fill:#4d4d4d" />
      <path
         d="m 459.78128,169.62943 c -6.15827,0 -11.06307,-2.04367 -14.71441,-6.131 -3.62412,-4.11458 -5.43617,-9.44174 -5.43616,-15.98149 l 0,-1.79843 c -1e-5,-6.29447 1.86654,-11.52626 5.59965,-15.69537 3.76034,-4.19629 8.2019,-6.29446 13.32472,-6.2945 5.96748,4e-5 10.47717,1.79847 13.52908,5.39528 3.05184,3.59689 4.57778,8.3927 4.57782,14.38743 l 0,5.02742 -28.6931,0 -0.12262,0.20437 c 0.0817,4.25085 1.15806,7.75233 3.22899,10.50446 2.0709,2.72489 4.97291,4.08734 8.70603,4.08733 2.72486,10e-6 5.10914,-0.38148 7.15284,-1.14445 2.07088,-0.79021 3.85569,-1.86654 5.35441,-3.229 l 3.14725,5.23179 c -1.58047,1.5532 -3.66501,2.84752 -6.25363,3.88297 -2.58867,1.03546 -5.7223,1.55319 -9.40087,1.55319 m -1.2262,-39.56542 c -2.69766,4e-5 -5.0002,1.14449 -6.9076,3.43336 -1.90744,2.2617 -3.07914,5.1092 -3.51511,8.54254 l 0.0817,0.20436 20.39581,0 0,-1.0627 c -4e-5,-3.16085 -0.84475,-5.80399 -2.53415,-7.92944 -1.68946,-2.12538 -4.19636,-3.18808 -7.5207,-3.18812"
         id="path3098"
         inkscape:connector-curvature="0"
         style="fill:#4d4d4d" />
      <path
         d="m 494.44191,168.77109 -8.05205,0 0,-63.76246 8.05205,0 0,63.76246"
         id="path3100"
         inkscape:connector-curvature="0"
         style="fill:#4d4d4d" />
      <path
         d="m 504.98723,147.47607 c 0,-7.11194 1.51231,-12.84783 4.53695,-17.20769 3.05187,-4.35979 7.31632,-6.5397 12.79336,-6.53974 2.58863,4e-5 4.87753,0.4769 6.86673,1.43056 2.01639,0.95376 3.73307,2.34345 5.15004,4.16909 l 0,-24.31966 8.05206,0 0,63.76246 -6.58061,0 -0.94009,-5.43616 c -1.44423,2.07092 -3.2154,3.63773 -5.31354,4.70044 -2.09819,1.06271 -4.53697,1.59406 -7.31633,1.59406 -5.3953,0 -9.61888,-1.94829 -12.67075,-5.84489 -3.05188,-3.92383 -4.57782,-9.07387 -4.57782,-15.45013 l 0,-0.85834 m 8.05206,0.85834 c -1e-5,4.46883 0.91282,8.05206 2.73851,10.74969 1.82566,2.6704 4.65955,4.0056 8.50167,4.00559 2.39787,1e-5 4.41429,-0.54497 6.04925,-1.63493 1.63491,-1.08995 2.9701,-2.61589 4.00559,-4.57782 l 0,-20.64105 c -1.03549,-1.82564 -2.38431,-3.26984 -4.04646,-4.33258 -1.63496,-1.08992 -3.61051,-1.6349 -5.92664,-1.63493 -3.86936,3e-5 -6.7305,1.59409 -8.58341,4.78218 -1.82569,3.18815 -2.73852,7.32998 -2.73851,12.42551 l 0,0.85834"
         id="path3102"
         inkscape:connector-curvature="0"
         style="fill:#4d4d4d" />
      <path
         d="m 552.52298,146.24986 c -10e-6,-6.53971 1.77117,-11.92136 5.31353,-16.14498 3.54235,-4.25079 8.35178,-6.3762 14.4283,-6.37624 6.13098,4e-5 10.96766,2.11183 14.51005,6.33537 3.56957,4.22362 5.35437,9.61889 5.35441,16.18585 l 0,0.89922 c -4e-5,6.59425 -1.77122,11.98953 -5.31354,16.18585 -3.54239,4.19634 -8.36544,6.2945 -14.46917,6.2945 -6.10377,0 -10.94045,-2.09816 -14.51005,-6.2945 -3.54236,-4.22357 -5.31354,-9.61885 -5.31353,-16.18585 l 0,-0.89922 m 8.05205,0.89922 c -10e-6,4.68683 0.98095,8.55617 2.94288,11.60804 1.98916,3.05188 4.93204,4.57782 8.82865,4.57781 3.84207,10e-6 6.7577,-1.52593 8.7469,-4.57781 1.98914,-3.05187 2.98372,-6.92121 2.98376,-11.60804 l 0,-0.89922 c -4e-5,-4.63228 -1.00825,-8.488 -3.02463,-11.56716 -1.9892,-3.07909 -4.91846,-4.61865 -8.78778,-4.61869 -3.84211,4e-5 -6.75774,1.5396 -8.7469,4.61869 -1.96193,3.07916 -2.94289,6.93488 -2.94288,11.56716 l 0,0.89922"
         id="path3104"
         inkscape:connector-curvature="0"
         style="fill:#4d4d4d" />
      <path
         d="m 622.90692,131.65807 -4.12822,-0.24524 c -2.12543,4e-5 -3.92386,0.50414 -5.39528,1.51232 -1.44421,1.00824 -2.56141,2.42518 -3.35162,4.25083 l 0,31.59511 -8.05205,0 0,-44.22499 7.19371,0 0.7766,6.458 c 1.25343,-2.28887 2.79299,-4.07367 4.61869,-5.35442 1.8529,-1.28065 3.97832,-1.921 6.37624,-1.92104 0.59945,4e-5 1.17168,0.0545 1.71668,0.16349 0.54496,0.0818 0.99456,0.17716 1.34883,0.28611 l -1.10358,7.47983"
         id="path3106"
         inkscape:connector-curvature="0"
         style="fill:#4d4d4d" />
      <path
         d="m 634.7602,168.77109 0,-38.25747 -6.9076,0 0,-5.96752 6.9076,0 0,-5.59965 c -1e-5,-4.71401 1.22619,-8.35173 3.6786,-10.91319 2.47964,-2.58858 5.92662,-3.8829 10.34096,-3.88297 0.92644,7e-5 1.85291,0.0818 2.77939,0.24524 0.95369,0.13631 2.00277,0.34068 3.14725,0.6131 l -0.98096,6.13101 c -0.49051,-0.10894 -1.08998,-0.20431 -1.79843,-0.28612 -0.68124,-0.0817 -1.40334,-0.12256 -2.16628,-0.12262 -2.34343,6e-5 -4.08736,0.70853 -5.2318,2.12542 -1.14447,1.38975 -1.71669,3.41979 -1.71668,6.09013 l 0,5.59965 9.19651,0 0,5.96752 -9.19651,0 0,38.25747 -8.05205,0"
         id="path3108"
         inkscape:connector-curvature="0"
         style="fill:#4d4d4d" />
    </g>
  </g>
</svg>
