<svg xmlns="http://www.w3.org/2000/svg" version="1.2" width="256" height="256" viewBox="0 0 256 256" preserveAspectRatio="none"><g transform="matrix(1.553 0 0 1.553 -9.955 64.187)"><circle cx="36" cy="54" r="22" transform="matrix(1.478 0 0 1.507 -3.122 -2.435)" stroke="#de2c68" stroke-width="1.145" fill="none"/><circle cx="74" cy="44" r="22" transform="matrix(1.595 0 0 1.622 -10.072 -9.178)" stroke="#de2c68" stroke-width="1.062" fill="none"/><circle cx="74" cy="44" r="29" transform="matrix(1.583 0 0 1.599 -9.34 -8.136)" stroke="#de2c68" stroke-width="5.812" fill="none"/><path fill="#fc3" d="M42.23 62.951h-7.247l5.797 5.495h-11.595v5.495h11.595l-5.797 5.495h7.247l8.696-8.243z"/><path fill="#fc3" d="M117.514 85.333l-9.096-9.414h19.707v-9.414h-19.707l9.096-9.414h-12.128l-13.644 14.12 13.644 14.12z"/></g></svg>